<?xml version="1.0" encoding="UTF-8" standalone="no"?><!DOCTYPE svg PUBLIC "-//W3C//DTD SVG 1.1//EN" "http://www.w3.org/Graphics/SVG/1.1/DTD/svg11.dtd"><svg width="100%" height="100%" viewBox="0 0 160 162" version="1.1" xmlns="http://www.w3.org/2000/svg" xmlns:xlink="http://www.w3.org/1999/xlink" xml:space="preserve" xmlns:serif="http://www.serif.com/" style="fill-rule:evenodd;clip-rule:evenodd;stroke-linejoin:round;stroke-miterlimit:2;"><path d="M114.692,7.475c3.759,1.71 7.281,3.861 10.857,5.917c-3.807,-1.599 -7.458,-3.579 -11.399,-4.857c-18.492,-6.543 -39.59,-5.034 -57.021,3.939c-18.879,9.492 -33.04,27.687 -37.755,48.27c-4.561,19.246 -0.765,40.268 10.21,56.714c11.238,17.117 30.033,29.011 50.314,31.832c17.5,2.554 35.86,-1.582 50.574,-11.39c10.965,-7.23 19.845,-17.537 25.478,-29.39c0.753,-1.645 1.488,-3.296 2.299,-4.905c-3.635,11.684 -9.669,22.664 -17.971,31.682c-13.301,14.647 -32.192,23.998 -51.884,25.82c-19.752,1.973 -40.118,-3.748 -55.972,-15.694c-15.784,-11.658 -26.92,-29.328 -30.785,-48.553c-4.026,-19.414 -0.558,-40.263 9.647,-57.269c10.143,-17.328 27.044,-30.52 46.299,-36.194c18.683,-5.658 39.421,-4.215 57.109,4.078" style="fill:#ffdf00;fill-rule:nonzero;"/><path d="M42.192,28.148c14.457,-14.728 35.797,-22.25 56.295,-19.841c20.844,2.139 40.241,14.561 51.078,32.465c10.688,17.224 13.022,39.267 6.301,58.382c-5.799,16.901 -18.504,31.265 -34.547,39.122c-10.277,5.079 -21.864,7.575 -33.317,6.975c8.381,-0.605 16.757,-2.322 24.377,-5.977c17.973,-8.318 31.56,-25.565 35.128,-45.083c2.675,-13.881 0.513,-28.65 -6.139,-41.135c-8.312,-15.76 -23.57,-27.727 -40.962,-31.756c-12.975,-3.078 -26.931,-1.943 -39.186,3.332c-16.838,7.13 -30.222,21.985 -35.445,39.532c-1.476,4.871 -2.352,9.921 -2.599,15.005c-0.128,2.046 0.143,4.138 -0.427,6.139c-2.819,-20.712 4.611,-42.45 19.443,-57.16" style="fill:#ffdf00;fill-rule:nonzero;"/><path d="M131.263,108.019c4.277,-6.703 6.773,-14.393 7.96,-22.228c0.675,8.814 -1.152,17.772 -4.882,25.768c-4.871,10.399 -13.201,19.126 -23.357,24.481c-9.079,4.813 -19.576,6.895 -29.802,5.932c-11.397,-0.987 -22.395,-5.845 -30.851,-13.541c-7.102,-6.404 -12.428,-14.751 -15.212,-23.899c-0.842,-2.841 -1.667,-5.736 -1.643,-8.721c5.442,18.048 21.253,32.343 39.607,36.408c11.223,2.559 23.271,1.47 33.82,-3.153c9.972,-4.382 18.607,-11.783 24.36,-21.047" style="fill:#ff5722;fill-rule:nonzero;"/><path d="M91.243,70.503c1.562,-0 2.962,-0.423 4.265,-1.302c2.507,-1.662 3.679,-4.788 2.897,-7.685c-0.846,-3.093 -3.777,-5.308 -7.065,-5.308c-2.996,-0.033 -5.959,0 -8.922,0c-0.129,0 -0.293,0 -0.423,0.033l0,14.229c0.162,0.033 0.261,0.033 0.358,0.033l8.89,-0Z" style="fill:#ffdf00;fill-rule:nonzero;"/><path d="M92.838,81.117c-3.125,0 -6.251,0 -9.377,-0.032l-1.498,0l0,17.095l0.586,-0c3.517,-0 7.001,0.031 10.517,-0c3.386,-0.065 6.023,-1.531 7.75,-4.494c1.921,-3.32 1.139,-7.717 -1.727,-10.224c-1.79,-1.595 -3.874,-2.345 -6.251,-2.345" style="fill:#ffdf00;fill-rule:nonzero;"/><path d="M113.582,94.953c-0.969,3.153 -2.766,5.7 -5.394,7.664c-2.159,1.521 -4.65,2.323 -7.112,3.043c-1.853,0.526 -3.735,0.858 -5.644,1.273c-0.194,0.083 -0.36,0.11 -0.609,0.166l0,10.348l-6.972,-0l-0,-10.293l-5.34,0l0,10.265l-7,-0l-0,-10.292l-14.609,-0l0,-8.744l8.771,0l-0,-42.359l-8.771,-0l0,-9.075l14.609,-0l-0,-9.85c-0,-0.36 0.111,-0.498 0.498,-0.498l6.087,0c0.083,0 0.221,0.027 0.388,0.027l-0,10.293l5.34,0l-0,-10.293l6.999,0l0,10.265c1.107,0.138 2.159,0.222 3.182,0.415c3.404,0.692 6.502,2.103 8.854,4.704c1.799,1.937 2.85,4.261 3.376,6.862c0.553,2.794 0.608,5.616 -0.166,8.328c-1.218,4.094 -3.874,6.751 -7.941,7.968c-0.056,-0 -0.083,0.028 -0.166,0.083c0.277,0.11 0.553,0.194 0.775,0.277c3.071,0.885 5.699,2.462 7.857,4.842c1.771,1.992 2.822,4.288 3.348,6.889c0.471,2.628 0.415,5.174 -0.36,7.692m4.04,-50.799c-4.759,-4.675 -10.514,-8.3 -16.933,-10.542c-4.759,-1.687 -9.905,-2.6 -15.273,-2.6c-5.312,0 -10.348,0.885 -15.052,2.573c-1.106,0.332 -2.13,0.747 -3.208,1.19c-2.684,1.107 -5.174,2.518 -7.526,4.122c-2.325,1.577 -4.455,3.321 -6.42,5.257c-8.549,8.356 -13.833,19.977 -13.833,32.87c0,12.893 5.284,24.541 13.833,32.869c2.02,1.992 4.262,3.791 6.642,5.423c2.268,1.522 4.758,2.822 7.304,3.957c1.078,0.442 2.102,0.885 3.208,1.217c4.704,1.661 9.74,2.545 15.052,2.545c5.368,-0 10.514,-0.912 15.273,-2.573c6.419,-2.296 12.174,-5.893 16.933,-10.569c8.494,-8.355 13.806,-20.004 13.806,-32.869c-0,-12.866 -5.312,-24.487 -13.806,-32.87" style="fill:#ffdf00;fill-rule:nonzero;"/></svg>